<svg id="圖層_1" data-name="圖層 1" xmlns="http://www.w3.org/2000/svg" xmlns:xlink="http://www.w3.org/1999/xlink" viewBox="0 0 60 24"><defs><style>.cls-1,.cls-2,.cls-3,.cls-4,.cls-5{fill-rule:evenodd;}.cls-1{fill:url(#未命名漸層);}.cls-2{fill:url(#未命名漸層_2);}.cls-3{fill:url(#未命名漸層_3);}.cls-4{fill:url(#未命名漸層_4);}.cls-5{fill:url(#未命名漸層_5);}.cls-6{fill:url(#未命名漸層_6);}.cls-7{fill:url(#未命名漸層_7);}.cls-8{fill:url(#未命名漸層_8);}.cls-9{fill:url(#未命名漸層_9);}</style><linearGradient id="未命名漸層" x1="16.07" y1="20.59" x2="5.29" y2="0.54" gradientTransform="matrix(1, 0, 0, -1, 0, 23.89)" gradientUnits="userSpaceOnUse"><stop offset="0" stop-color="#ff505c"/><stop offset="1" stop-color="#ffcc70"/></linearGradient><linearGradient id="未命名漸層_2" x1="23.83" y1="9.56" x2="28.94" y2="0.71" xlink:href="#未命名漸層"/><linearGradient id="未命名漸層_3" x1="10.39" y1="7.81" x2="22.84" y2="7.81" xlink:href="#未命名漸層"/><linearGradient id="未命名漸層_4" x1="49.94" y1="9.78" x2="55.88" y2="-1.01" xlink:href="#未命名漸層"/><linearGradient id="未命名漸層_5" x1="39.03" y1="2.22" x2="48.85" y2="13.97" xlink:href="#未命名漸層"/><linearGradient id="未命名漸層_6" x1="33.7" y1="6.96" x2="28.86" y2="14.15" xlink:href="#未命名漸層"/><linearGradient id="未命名漸層_7" x1="29.2" y1="-1.56" x2="40.11" y2="13.09" xlink:href="#未命名漸層"/><linearGradient id="未命名漸層_8" x1="-787" y1="-140.34" x2="-786.14" y2="-143.7" gradientTransform="matrix(-0.99, 0.17, -0.17, -0.99, -768.08, -1.28)" xlink:href="#未命名漸層"/><linearGradient id="未命名漸層_9" x1="-787.02" y1="-146.19" x2="-787.02" y2="-138.75" gradientTransform="matrix(-0.99, 0.17, -0.17, -0.99, -768.08, -1.28)" xlink:href="#未命名漸層"/></defs><path class="cls-1" d="M11,23.5H5.83c-4.11-.06-5.53-2-3.25-5.88C7.15,10,12.28.5,12.28.5l3.07,6.22s-3.23,5.91-6.77,12C7.17,21.34,8.64,22.67,11,23.5Z"/><path class="cls-2" d="M26.67,13.44,28.15,16l4.31,7.46H28.35a3.77,3.77,0,0,1-4-2.57l-.7-1.49-1-2.24C24,14.35,25.21,13.23,26.67,13.44Z"/><path class="cls-3" d="M25,10.47l.76,1.32,1,1.65c-1.46-.21-2.66.91-4.1,3.73-.91,1.45-1.79,2.9-2.66,4.35a3.61,3.61,0,0,1-3.64,1.95L11,23.5c-2.4-.83-3.87-2.16-2.46-4.83h5.19A2.39,2.39,0,0,0,16,17.22l4-6.92C21.42,8,23.63,8.2,25,10.47Z"/><path class="cls-4" d="M52.67,13.44,54.15,16l4.32,7.46H54.36a3.77,3.77,0,0,1-4-2.57l-.7-1.49-1-2.24C50,14.35,51.21,13.23,52.67,13.44Z"/><path class="cls-5" d="M51,10.47l.77,1.32,1,1.65c-1.46-.21-2.65.91-4.1,3.73L46,21.52a3.61,3.61,0,0,1-3.64,1.95H35.13l-.57-4.8h5.19A2.39,2.39,0,0,0,42,17.22c1.34-2.31,2.69-4.61,4-6.92S49.64,8.2,51,10.47Z"/><path class="cls-6" d="M34.56,17a6.7,6.7,0,0,0,1-2h0c-.87-1.45-1.73-2.9-2.56-4.35a3.61,3.61,0,0,0-3.64-2h-4L29,14.73,29,15l1.12,1.92C32.22,18.51,33.88,17.9,34.56,17Z"/><path class="cls-7" d="M39.65,18.68h0l1.45-2.51L45.41,8.7H41.3a3.76,3.76,0,0,0-4,2.57l-.7,1.5L35.6,15h0a6.85,6.85,0,0,1-1,2.05c-.68.88-2.34,1.48-4.44-.15l2.92,5a2.84,2.84,0,0,0,2.12,1.6C36.25,23.43,39.38,19.06,39.65,18.68Z"/><path class="cls-8" d="M34.37,2.92A6.05,6.05,0,0,0,36,4.44a2.09,2.09,0,0,1,.19,2.95,3.45,3.45,0,0,1-.28.26,3.1,3.1,0,0,1-1.9.61,1.88,1.88,0,0,1-1.3-.75s0,0-.06-.07a1.67,1.67,0,0,0,2.15-.19,1.5,1.5,0,0,0,.08-1.82c-.2-.27-.46-.49-.68-.75a2.89,2.89,0,0,1-.66-2.33,3.69,3.69,0,0,1,.43-1c0-.06.16-.2.23-.32A2.28,2.28,0,0,0,34.37,2.92Z"/><path class="cls-9" d="M34,8.26a3.1,3.1,0,0,0,1.9-.61,2.09,2.09,0,0,0,.36-2.93A2.33,2.33,0,0,0,36,4.44a6.05,6.05,0,0,1-1.63-1.52A2.27,2.27,0,0,1,34.2,1a.31.31,0,0,0,.06-.13A2.77,2.77,0,0,0,35,2.46c.66.68,1.67.84,2.31,1.53a3.1,3.1,0,0,1-.05,4.24,3,3,0,0,1-4.18-.08,2.53,2.53,0,0,1-.31-.42.27.27,0,0,0-.08-.22A1.87,1.87,0,0,0,34,8.26Z"/></svg>