<svg id="圖層_1" data-name="圖層 1" xmlns="http://www.w3.org/2000/svg" xmlns:xlink="http://www.w3.org/1999/xlink" viewBox="0 0 28 32"><defs><style>.cls-1{fill:#ffcc70;}.cls-2{fill:#fa9341;}.cls-3{fill:#ff564d;}.cls-4{fill:url(#未命名漸層);}</style><radialGradient id="未命名漸層" cx="23.48" cy="27.22" r="7.58" gradientTransform="matrix(0.98, 0, 0, -1, -11.6, 31.89)" gradientUnits="userSpaceOnUse"><stop offset="0.14" stop-color="#ffcc70"/><stop offset="0.46" stop-color="#fa9341"/><stop offset="1" stop-color="#ff564d"/></radialGradient></defs><path class="cls-1" d="M5.22,14a4.36,4.36,0,0,1,4.36,4.3,4.32,4.32,0,0,0,4,4.29,5.14,5.14,0,0,1,.55-.06,4.33,4.33,0,0,0,4.31-4.35v0a4.36,4.36,0,0,1,4.31-4.38,4.29,4.29,0,0,1,4,2.86,4.31,4.31,0,1,0-8.32-1.5,4.33,4.33,0,0,1-4.29,4.37h0a5.14,5.14,0,0,0-.55.06,4.32,4.32,0,0,1-4-4.29A4.36,4.36,0,0,0,5.22,11,4.34,4.34,0,0,0,1,15.39a4.72,4.72,0,0,0,.28,1.44A4.29,4.29,0,0,1,5.22,14Z"/><path class="cls-2" d="M2.45,18.61a4.18,4.18,0,0,1,2.77-1.1,4.36,4.36,0,0,1,4.36,4.33,4.35,4.35,0,0,0,4,4.29,2.57,2.57,0,0,1,.55-.06,4.34,4.34,0,0,0,4.31-4.38,4.34,4.34,0,0,1,4.31-4.37h0a4.19,4.19,0,0,1,2.81,1.1,4.43,4.43,0,0,0,1.2-1.78,4.29,4.29,0,0,0-4-2.86,4.36,4.36,0,0,0-4.31,4.38,4.33,4.33,0,0,1-4.29,4.37h0a5.14,5.14,0,0,0-.55.06,4.32,4.32,0,0,1-4-4.29A4.35,4.35,0,0,0,5.22,14a4.29,4.29,0,0,0-4,2.86A4.4,4.4,0,0,0,2.45,18.61Z"/><path class="cls-3" d="M18.42,21.69a4.34,4.34,0,0,1-4.31,4.38,2.57,2.57,0,0,0-.55.06,4.35,4.35,0,0,1-4-4.29A4.36,4.36,0,0,0,5.2,17.51a4.18,4.18,0,0,0-2.77,1.1,4.28,4.28,0,0,0,2.89,1.11A4.34,4.34,0,0,1,9.7,24a4.34,4.34,0,0,0,4.36,4.33,4.22,4.22,0,0,0,3-1.33,4.37,4.37,0,0,0,1.34-3.1,4.36,4.36,0,0,1,4.31-4.38,4.17,4.17,0,0,0,2.83-1.1,4.19,4.19,0,0,0-2.81-1.1,4.34,4.34,0,0,0-4.31,4.37Z"/><ellipse class="cls-4" cx="14" cy="8.01" rx="4.3" ry="4.38"/></svg>